<mxfile host="app.diagrams.net" modified="2021-10-21T06:34:29.244Z" agent="5.0 (Macintosh; Intel Mac OS X 10_15_7) AppleWebKit/537.36 (KHTML, like Gecko) Chrome/94.0.4606.81 Safari/537.36" etag="c0jsG3IuRYAnPW0Pvs5Z" version="15.5.6" type="github">
  <diagram id="JZSoYLXpMb4sBtdS11SZ" name="Page-1">
    <mxGraphModel dx="946" dy="532" grid="1" gridSize="10" guides="1" tooltips="1" connect="1" arrows="1" fold="1" page="1" pageScale="1" pageWidth="827" pageHeight="1169" math="0" shadow="0">
      <root>
        <mxCell id="0" />
        <mxCell id="1" parent="0" />
        <mxCell id="zdeUufDYtfrDHzwF8wlF-1" value="" style="strokeWidth=2;html=1;shape=mxgraph.flowchart.database;whiteSpace=wrap;" vertex="1" parent="1">
          <mxGeometry x="30" y="435" width="60" height="60" as="geometry" />
        </mxCell>
        <mxCell id="zdeUufDYtfrDHzwF8wlF-2" value="File accessor" style="rounded=1;whiteSpace=wrap;html=1;absoluteArcSize=1;arcSize=14;strokeWidth=2;" vertex="1" parent="1">
          <mxGeometry x="330" y="210" width="100" height="100" as="geometry" />
        </mxCell>
        <mxCell id="zdeUufDYtfrDHzwF8wlF-3" value="Document &lt;br&gt;Upload" style="rounded=1;arcSize=10;whiteSpace=wrap;html=1;align=center;" vertex="1" parent="1">
          <mxGeometry x="335" y="440" width="90" height="50" as="geometry" />
        </mxCell>
        <object label="Document" id="zdeUufDYtfrDHzwF8wlF-10">
          <mxCell style="edgeStyle=segmentEdgeStyle;endArrow=classic;html=1;rounded=0;exitX=0.25;exitY=0;exitDx=0;exitDy=0;entryX=0.25;entryY=1;entryDx=0;entryDy=0;startArrow=none;" edge="1" parent="1" source="zdeUufDYtfrDHzwF8wlF-14" target="zdeUufDYtfrDHzwF8wlF-2">
            <mxGeometry width="50" height="50" relative="1" as="geometry">
              <mxPoint x="330" y="360" as="sourcePoint" />
              <mxPoint x="380" y="310" as="targetPoint" />
            </mxGeometry>
          </mxCell>
        </object>
        <mxCell id="zdeUufDYtfrDHzwF8wlF-13" value="txID" style="edgeStyle=segmentEdgeStyle;endArrow=classic;html=1;rounded=0;exitX=0.75;exitY=1;exitDx=0;exitDy=0;entryX=0.75;entryY=0;entryDx=0;entryDy=0;" edge="1" parent="1" source="zdeUufDYtfrDHzwF8wlF-2" target="zdeUufDYtfrDHzwF8wlF-3">
          <mxGeometry width="50" height="50" relative="1" as="geometry">
            <mxPoint x="390" y="300" as="sourcePoint" />
            <mxPoint x="440" y="250" as="targetPoint" />
          </mxGeometry>
        </mxCell>
        <mxCell id="zdeUufDYtfrDHzwF8wlF-14" value="" style="html=1;verticalLabelPosition=bottom;align=center;labelBackgroundColor=#ffffff;verticalAlign=top;strokeWidth=2;strokeColor=#0080F0;shadow=0;dashed=0;shape=mxgraph.ios7.icons.document;" vertex="1" parent="1">
          <mxGeometry x="350" y="390" width="21" height="30" as="geometry" />
        </mxCell>
        <mxCell id="zdeUufDYtfrDHzwF8wlF-15" value="" style="edgeStyle=segmentEdgeStyle;endArrow=none;html=1;rounded=0;exitX=0.25;exitY=0;exitDx=0;exitDy=0;entryX=0.25;entryY=1;entryDx=0;entryDy=0;" edge="1" parent="1" source="zdeUufDYtfrDHzwF8wlF-3" target="zdeUufDYtfrDHzwF8wlF-14">
          <mxGeometry width="50" height="50" relative="1" as="geometry">
            <mxPoint x="357.5" y="440" as="sourcePoint" />
            <mxPoint x="355" y="310" as="targetPoint" />
          </mxGeometry>
        </mxCell>
        <mxCell id="zdeUufDYtfrDHzwF8wlF-16" value="" style="sketch=0;points=[[0,0,0],[0.25,0,0],[0.5,0,0],[0.75,0,0],[1,0,0],[0,1,0],[0.25,1,0],[0.5,1,0],[0.75,1,0],[1,1,0],[0,0.25,0],[0,0.5,0],[0,0.75,0],[1,0.25,0],[1,0.5,0],[1,0.75,0]];outlineConnect=0;gradientDirection=north;verticalLabelPosition=bottom;verticalAlign=top;align=center;html=1;fontSize=12;fontStyle=0;aspect=fixed;shape=mxgraph.aws4.resourceIcon;resIcon=mxgraph.aws4.blockchain;shadow=1;perimeterSpacing=6;container=0;autosize=0;fixDash=0;snapToPoint=0;portConstraintRotation=0;comic=0;treeMoving=0;fillColor=#f5f5f5;strokeColor=#666666;gradientColor=#ffffff;strokeWidth=7;" vertex="1" parent="1">
          <mxGeometry x="650" y="221" width="78" height="78" as="geometry" />
        </mxCell>
        <mxCell id="zdeUufDYtfrDHzwF8wlF-17" value="" style="endArrow=classic;html=1;rounded=0;exitX=1;exitY=0.5;exitDx=0;exitDy=0;entryX=0;entryY=0.5;entryDx=0;entryDy=0;entryPerimeter=0;startArrow=none;" edge="1" parent="1" source="zdeUufDYtfrDHzwF8wlF-18" target="zdeUufDYtfrDHzwF8wlF-16">
          <mxGeometry width="50" height="50" relative="1" as="geometry">
            <mxPoint x="390" y="380" as="sourcePoint" />
            <mxPoint x="440" y="330" as="targetPoint" />
          </mxGeometry>
        </mxCell>
        <mxCell id="zdeUufDYtfrDHzwF8wlF-18" value="" style="html=1;verticalLabelPosition=bottom;align=center;labelBackgroundColor=#ffffff;verticalAlign=top;strokeWidth=2;strokeColor=#0080F0;shadow=0;dashed=0;shape=mxgraph.ios7.icons.document;" vertex="1" parent="1">
          <mxGeometry x="510" y="245" width="21" height="30" as="geometry" />
        </mxCell>
        <mxCell id="zdeUufDYtfrDHzwF8wlF-19" value="" style="endArrow=none;html=1;rounded=0;exitX=1;exitY=0.5;exitDx=0;exitDy=0;entryX=0;entryY=0.5;entryDx=0;entryDy=0;entryPerimeter=0;" edge="1" parent="1" source="zdeUufDYtfrDHzwF8wlF-2" target="zdeUufDYtfrDHzwF8wlF-18">
          <mxGeometry width="50" height="50" relative="1" as="geometry">
            <mxPoint x="430" y="260" as="sourcePoint" />
            <mxPoint x="644" y="260" as="targetPoint" />
          </mxGeometry>
        </mxCell>
        <mxCell id="zdeUufDYtfrDHzwF8wlF-20" value="txID" style="edgeStyle=segmentEdgeStyle;endArrow=classic;html=1;rounded=0;exitX=0;exitY=0.75;exitDx=0;exitDy=0;exitPerimeter=0;" edge="1" parent="1" source="zdeUufDYtfrDHzwF8wlF-16" target="zdeUufDYtfrDHzwF8wlF-2">
          <mxGeometry width="50" height="50" relative="1" as="geometry">
            <mxPoint x="580" y="320" as="sourcePoint" />
            <mxPoint x="577.5" y="450" as="targetPoint" />
          </mxGeometry>
        </mxCell>
        <mxCell id="zdeUufDYtfrDHzwF8wlF-22" value="txID" style="edgeStyle=segmentEdgeStyle;endArrow=classic;html=1;rounded=0;exitX=0;exitY=0.5;exitDx=0;exitDy=0;entryX=1;entryY=0.5;entryDx=0;entryDy=0;entryPerimeter=0;" edge="1" parent="1" source="zdeUufDYtfrDHzwF8wlF-3" target="zdeUufDYtfrDHzwF8wlF-1">
          <mxGeometry width="50" height="50" relative="1" as="geometry">
            <mxPoint x="280" y="520" as="sourcePoint" />
            <mxPoint x="277.5" y="650" as="targetPoint" />
            <Array as="points">
              <mxPoint x="240" y="465" />
              <mxPoint x="240" y="465" />
            </Array>
          </mxGeometry>
        </mxCell>
      </root>
    </mxGraphModel>
  </diagram>
</mxfile>
